<svg id="visual" viewBox="0 0 900 200" width="900" height="200" xmlns="http://www.w3.org/2000/svg" xmlns:xlink="http://www.w3.org/1999/xlink" version="1.1"><rect x="0" y="0" width="900" height="200" fill="#A0AECD"></rect><g transform="translate(400.7309093179197 67.14180640372572)"><path d="M193.4 -191.2C251.8 -181.5 301.2 -121.6 325.2 -48.1C349.2 25.5 347.8 112.7 308.8 176.3C269.7 239.8 193 279.7 135.3 246.3C77.5 213 38.8 106.5 -36.3 85.4C-111.4 64.3 -222.9 128.7 -240.1 125.6C-257.3 122.6 -180.4 52.2 -133.8 9.2C-87.1 -33.9 -70.9 -49.5 -53.7 -66.4C-36.4 -83.4 -18.2 -101.7 24.6 -131.1C67.5 -160.4 135 -200.9 193.4 -191.2" fill="#111111"></path></g></svg>