<svg id="visual" viewBox="0 0 960 300" width="960" height="300" xmlns="http://www.w3.org/2000/svg" xmlns:xlink="http://www.w3.org/1999/xlink" version="1.1"><rect x="0" y="0" width="960" height="300" fill="#A0AECD"></rect><path d="M0 235L8.8 229.3C17.7 223.7 35.3 212.3 53.2 205.3C71 198.3 89 195.7 106.8 199.8C124.7 204 142.3 215 160 221.8C177.7 228.7 195.3 231.3 213.2 235.8C231 240.3 249 246.7 266.8 242.2C284.7 237.7 302.3 222.3 320 221.2C337.7 220 355.3 233 373.2 242C391 251 409 256 426.8 249C444.7 242 462.3 223 480 213.5C497.7 204 515.3 204 533.2 204.3C551 204.7 569 205.3 586.8 204.5C604.7 203.7 622.3 201.3 640 203.2C657.7 205 675.3 211 693.2 216C711 221 729 225 746.8 229.2C764.7 233.3 782.3 237.7 800 236.8C817.7 236 835.3 230 853.2 222.8C871 215.7 889 207.3 906.8 209.5C924.7 211.7 942.3 224.3 951.2 230.7L960 237L960 301L951.2 301C942.3 301 924.7 301 906.8 301C889 301 871 301 853.2 301C835.3 301 817.7 301 800 301C782.3 301 764.7 301 746.8 301C729 301 711 301 693.2 301C675.3 301 657.7 301 640 301C622.3 301 604.7 301 586.8 301C569 301 551 301 533.2 301C515.3 301 497.7 301 480 301C462.3 301 444.7 301 426.8 301C409 301 391 301 373.2 301C355.3 301 337.7 301 320 301C302.3 301 284.7 301 266.8 301C249 301 231 301 213.2 301C195.3 301 177.7 301 160 301C142.3 301 124.7 301 106.8 301C89 301 71 301 53.2 301C35.3 301 17.7 301 8.8 301L0 301Z" fill="#000000" stroke-linecap="round" stroke-linejoin="miter"></path></svg>