<svg id="visual" viewBox="0 0 900 300" width="900" height="300" xmlns="http://www.w3.org/2000/svg" xmlns:xlink="http://www.w3.org/1999/xlink" version="1.1"><g stroke-width="1" stroke-linejoin="bevel"><path d="M479 114L405 102L401 233Z" fill="#7b89a6" stroke="#7b89a6"></path><path d="M401 233L500 207L479 114Z" fill="#14253c" stroke="#14253c"></path><path d="M405 102L310 162L401 233Z" fill="#03162c" stroke="#03162c"></path><path d="M401 233L472 300L500 207Z" fill="#8d9bb9" stroke="#8d9bb9"></path><path d="M371 300L472 300L401 233Z" fill="#8d9bb9" stroke="#8d9bb9"></path><path d="M310 162L371 300L401 233Z" fill="#8d9bb9" stroke="#8d9bb9"></path><path d="M405 102L315 80L310 162Z" fill="#14253c" stroke="#14253c"></path><path d="M371 0L315 80L405 102Z" fill="#000000" stroke="#000000"></path><path d="M611 201L576 64L479 114Z" fill="#46546f" stroke="#46546f"></path><path d="M519 0L371 0L405 102Z" fill="#697793" stroke="#697793"></path><path d="M611 201L479 114L500 207Z" fill="#576581" stroke="#576581"></path><path d="M519 0L405 102L479 114Z" fill="#03162c" stroke="#03162c"></path><path d="M583 300L611 201L500 207Z" fill="#000000" stroke="#000000"></path><path d="M576 64L519 0L479 114Z" fill="#14253c" stroke="#14253c"></path><path d="M371 0L338 0L315 80Z" fill="#46546f" stroke="#46546f"></path><path d="M472 300L583 300L500 207Z" fill="#46546f" stroke="#46546f"></path><path d="M172 202L266 300L310 162Z" fill="#697793" stroke="#697793"></path><path d="M310 162L266 300L371 300Z" fill="#03162c" stroke="#03162c"></path><path d="M709 92L596 0L576 64Z" fill="#35435d" stroke="#35435d"></path><path d="M576 64L596 0L519 0Z" fill="#7b89a6" stroke="#7b89a6"></path><path d="M227 0L191 106L315 80Z" fill="#7b89a6" stroke="#7b89a6"></path><path d="M315 80L191 106L310 162Z" fill="#576581" stroke="#576581"></path><path d="M191 106L172 202L310 162Z" fill="#000000" stroke="#000000"></path><path d="M583 300L686 236L611 201Z" fill="#25344d" stroke="#25344d"></path><path d="M611 201L709 92L576 64Z" fill="#7b89a6" stroke="#7b89a6"></path><path d="M338 0L227 0L315 80Z" fill="#697793" stroke="#697793"></path><path d="M172 202L194 300L266 300Z" fill="#8d9bb9" stroke="#8d9bb9"></path><path d="M686 236L709 92L611 201Z" fill="#14253c" stroke="#14253c"></path><path d="M583 300L690 300L686 236Z" fill="#35435d" stroke="#35435d"></path><path d="M812 217L791 98L709 92Z" fill="#a0aecd" stroke="#a0aecd"></path><path d="M73 0L138 127L191 106Z" fill="#46546f" stroke="#46546f"></path><path d="M191 106L138 127L172 202Z" fill="#8d9bb9" stroke="#8d9bb9"></path><path d="M172 202L130 300L194 300Z" fill="#000000" stroke="#000000"></path><path d="M138 127L131 164L172 202Z" fill="#03162c" stroke="#03162c"></path><path d="M709 92L713 0L596 0Z" fill="#35435d" stroke="#35435d"></path><path d="M131 164L130 300L172 202Z" fill="#25344d" stroke="#25344d"></path><path d="M812 217L709 92L686 236Z" fill="#03162c" stroke="#03162c"></path><path d="M709 92L791 98L713 0Z" fill="#25344d" stroke="#25344d"></path><path d="M690 300L812 217L686 236Z" fill="#000000" stroke="#000000"></path><path d="M0 85L0 201L131 164Z" fill="#35435d" stroke="#35435d"></path><path d="M131 164L0 201L130 300Z" fill="#8d9bb9" stroke="#8d9bb9"></path><path d="M227 0L73 0L191 106Z" fill="#03162c" stroke="#03162c"></path><path d="M690 300L825 300L812 217Z" fill="#8d9bb9" stroke="#8d9bb9"></path><path d="M0 85L131 164L138 127Z" fill="#03162c" stroke="#03162c"></path><path d="M791 98L837 0L713 0Z" fill="#8d9bb9" stroke="#8d9bb9"></path><path d="M900 98L837 0L791 98Z" fill="#576581" stroke="#576581"></path><path d="M900 190L791 98L812 217Z" fill="#03162c" stroke="#03162c"></path><path d="M73 0L0 85L138 127Z" fill="#46546f" stroke="#46546f"></path><path d="M0 201L0 300L130 300Z" fill="#35435d" stroke="#35435d"></path><path d="M73 0L0 0L0 85Z" fill="#35435d" stroke="#35435d"></path><path d="M900 300L900 190L812 217Z" fill="#03162c" stroke="#03162c"></path><path d="M900 190L900 98L791 98Z" fill="#697793" stroke="#697793"></path><path d="M825 300L900 300L812 217Z" fill="#7b89a6" stroke="#7b89a6"></path><path d="M900 98L900 0L837 0Z" fill="#a0aecd" stroke="#a0aecd"></path></g></svg>