<svg id="visual" viewBox="0 0 900 600" width="900" height="600" xmlns="http://www.w3.org/2000/svg" xmlns:xlink="http://www.w3.org/1999/xlink" version="1.1"><rect x="0" y="0" width="900" height="600" fill="#A0AECD"></rect><defs><linearGradient id="grad1_0" x1="33.3%" y1="0%" x2="100%" y2="100%"><stop offset="20%" stop-color="#a0aecd" stop-opacity="1"></stop><stop offset="80%" stop-color="#a0aecd" stop-opacity="1"></stop></linearGradient></defs><defs><linearGradient id="grad2_0" x1="0%" y1="0%" x2="66.7%" y2="100%"><stop offset="20%" stop-color="#a0aecd" stop-opacity="1"></stop><stop offset="80%" stop-color="#a0aecd" stop-opacity="1"></stop></linearGradient></defs><g transform="translate(900, 0)"><path d="M0 432.7C-62.7 434.6 -125.4 436.5 -165.6 399.7C-205.8 362.9 -223.5 287.4 -234.8 234.8C-246 182.1 -250.8 152.4 -282.7 117.1C-314.6 81.8 -373.6 40.9 -432.7 0L0 0Z" fill="#000000"></path></g><g transform="translate(0, 600)"><path d="M0 -432.7C59.6 -417.3 119.3 -402 150 -362.2C180.7 -322.4 182.6 -258.1 227 -227C271.4 -195.9 358.4 -197.9 399.7 -165.6C441.1 -133.3 436.9 -66.6 432.7 0L0 0Z" fill="#000000"></path></g></svg>